<?xml version="1.0" standalone="no"?>
<!DOCTYPE svg PUBLIC "-//W3C//DTD SVG 20010904//EN"
 "http://www.w3.org/TR/2001/REC-SVG-20010904/DTD/svg10.dtd">
<svg version="1.0" xmlns="http://www.w3.org/2000/svg"
 width="369.000000pt" height="335.000000pt" viewBox="0 0 369.000000 335.000000"
 preserveAspectRatio="xMidYMid meet">
<metadata>
Created by potrace 1.16, written by Peter Selinger 2001-2019
</metadata>
<g transform="translate(0.000000,335.000000) scale(0.100000,-0.100000)"
fill="#000000" stroke="none">
<path d="M2013 3285 c-76 -17 -210 -78 -289 -133 -57 -39 -181 -154 -237 -220
-136 -160 -275 -445 -349 -717 -27 -96 -31 -128 -32 -250 -1 -137 0 -141 30
-206 55 -116 141 -182 278 -213 85 -20 157 -20 254 0 83 17 244 70 313 103 23
11 46 18 50 15 18 -11 -110 -229 -225 -383 -240 -323 -607 -604 -981 -751 -87
-35 -95 -41 -95 -84 0 -27 1 -28 38 -22 64 12 273 87 377 136 124 58 232 123
354 213 124 92 145 110 286 251 234 235 368 424 555 786 47 89 102 233 159
415 23 72 46 144 51 160 17 53 50 267 57 360 6 101 -9 247 -34 315 -36 97 -97
165 -188 207 -54 25 -72 28 -185 30 -79 2 -148 -3 -187 -12z m224 -141 c71
-24 108 -57 144 -129 28 -57 32 -77 36 -172 7 -130 -8 -250 -47 -398 -46 -173
-77 -256 -196 -539 l-29 -69 -100 -48 c-161 -77 -258 -102 -400 -103 -115 -1
-122 0 -174 29 -214 118 -202 392 39 923 18 39 37 72 42 72 4 0 8 6 8 13 0 23
115 182 180 248 156 159 344 224 497 173z"/>
<path d="M2744 3135 c36 -137 41 -177 40 -325 -3 -281 -75 -572 -232 -925
-109 -246 -332 -612 -449 -735 -18 -20 -33 -40 -33 -44 0 -15 34 10 176 128
336 278 582 693 687 1156 28 126 30 344 4 440 -18 67 -68 178 -96 213 -44 56
-102 111 -97 92z"/>
<path d="M1329 3025 c-133 -84 -271 -212 -357 -330 -76 -104 -151 -256 -188
-380 -20 -70 -27 -113 -28 -195 -1 -116 14 -180 62 -261 25 -44 121 -154 127
-147 1 2 -3 37 -11 78 -47 265 43 619 244 954 61 101 81 129 167 236 59 72 80
101 73 99 -2 0 -42 -25 -89 -54z"/>
<path d="M980 185 c0 -70 4 -115 10 -115 11 0 12 5 11 74 0 69 12 88 30 45 27
-63 55 -113 67 -117 9 -3 12 18 13 72 0 42 1 93 2 113 0 20 -5 39 -11 41 -7 2
-12 -22 -14 -75 l-3 -78 -40 78 c-55 108 -65 103 -65 -38z"/>
<path d="M1160 185 l0 -115 65 0 c50 0 65 3 65 14 0 11 -14 16 -47 18 -48 3
-48 3 -48 38 0 34 1 35 43 38 28 2 42 8 42 18 0 10 -12 14 -45 14 -43 0 -45 1
-45 29 0 28 2 30 48 33 68 4 58 22 -15 26 l-63 3 0 -116z"/>
</g>
</svg>
