<svg xmlns="http://www.w3.org/2000/svg" width="84.8" height="76" viewBox="0 0 84.8 76">
  <path id="iconmonstr-twitter-4" d="M42.4,0C18.985,0,0,17.014,0,38S18.985,76,42.4,76,84.8,58.985,84.8,38,65.815,0,42.4,0ZM63.833,30.543c.647,12.793-10,27.056-28.846,27.056A31.174,31.174,0,0,1,19.433,53.51a22.146,22.146,0,0,0,15.024-3.765,10.1,10.1,0,0,1-9.483-6.318,11.323,11.323,0,0,0,4.586-.155c-4.88-.88-8.25-4.82-8.141-9.035a11.032,11.032,0,0,0,4.6,1.137c-4.519-2.707-5.8-8.056-3.141-12.144a30.032,30.032,0,0,0,20.917,9.5c-1.48-5.687,3.335-11.169,9.89-11.169a10.721,10.721,0,0,1,7.406,2.872,21.715,21.715,0,0,0,6.445-2.207,9.387,9.387,0,0,1-4.463,5.032A22.1,22.1,0,0,0,68.9,25.827,19.334,19.334,0,0,1,63.833,30.543Z" fill="#0c38b1"/>
</svg>
