<svg xmlns="http://www.w3.org/2000/svg" width="80.4" height="76" viewBox="0 0 80.4 76">
  <path id="iconmonstr-github-1" d="M40.2,0C18,0,0,17.445,0,38.961c0,17.214,11.517,31.818,27.493,36.97,2.007.36,2.657-.847,2.657-1.873V66.8c-11.182,2.357-13.511-4.6-13.511-4.6-1.829-4.5-4.466-5.7-4.466-5.7-3.648-2.419.278-2.367.278-2.367,4.037.273,6.161,4.016,6.161,4.016,3.584,5.954,9.4,4.234,11.7,3.237a8.174,8.174,0,0,1,2.553-5.208c-8.928-.99-18.314-4.331-18.314-19.256A14.825,14.825,0,0,1,18.69,26.471c-.415-.984-1.792-4.948.392-10.312,0,0,3.377-1.045,11.058,3.993a39.273,39.273,0,0,1,20.13,0c7.675-5.039,11.045-3.993,11.045-3.993,2.188,5.367.811,9.331.4,10.312a14.785,14.785,0,0,1,4.137,10.458c0,14.964-9.4,18.26-18.355,19.224,1.44,1.208,2.757,3.578,2.757,7.214V74.058c0,1.036.643,2.253,2.683,1.87C68.9,70.769,80.4,56.168,80.4,38.961,80.4,17.445,62.4,0,40.2,0Z" fill="#0c38b1"/>
</svg>
