<svg xmlns="http://www.w3.org/2000/svg" width="79.6" height="76" viewBox="0 0 79.6 76">
  <g id="layer1" transform="translate(-107.129 -129.761)">
    <path id="path4642" d="M146.929,129.761c-10.808,0-12.163.066-16.408.232a30.4,30.4,0,0,0-9.654,1.758,19.668,19.668,0,0,0-7.058,4.389,18.532,18.532,0,0,0-4.583,6.728,26.822,26.822,0,0,0-1.853,9.231c-.194,4.053-.244,5.347-.244,15.668s.05,11.615.244,15.668a26.756,26.756,0,0,0,1.853,9.219,18.532,18.532,0,0,0,4.583,6.728,19.674,19.674,0,0,0,7.058,4.388,30.376,30.376,0,0,0,9.654,1.77c4.245.185,5.6.221,16.408.221s12.163-.06,16.408-.221a30.461,30.461,0,0,0,9.666-1.77,19.629,19.629,0,0,0,7.046-4.388,18.532,18.532,0,0,0,4.583-6.728,26.751,26.751,0,0,0,1.853-9.219c.194-4.053.244-5.347.244-15.668s-.05-11.615-.244-15.668a26.828,26.828,0,0,0-1.853-9.231,18.532,18.532,0,0,0-4.583-6.728A19.622,19.622,0,0,0,173,131.751a30.483,30.483,0,0,0-9.666-1.758c-4.245-.185-5.6-.232-16.408-.232Zm0,6.844c10.626,0,11.882.06,16.078.221a22.894,22.894,0,0,1,7.4,1.315,12.381,12.381,0,0,1,4.571,2.84,11.71,11.71,0,0,1,2.974,4.365,20.232,20.232,0,0,1,1.378,7.066c.191,4.007.232,5.207.232,15.354s-.044,11.347-.232,15.354a20.15,20.15,0,0,1-1.378,7.054,11.755,11.755,0,0,1-2.974,4.376,12.381,12.381,0,0,1-4.571,2.841,23.086,23.086,0,0,1-7.4,1.3c-4.2.185-5.451.221-16.078.221s-11.882-.06-16.078-.221a22.887,22.887,0,0,1-7.387-1.3,12.429,12.429,0,0,1-4.583-2.841,11.763,11.763,0,0,1-2.974-4.376,20.224,20.224,0,0,1-1.365-7.054c-.191-4.007-.232-5.207-.232-15.354s.044-11.347.232-15.354a20.313,20.313,0,0,1,1.365-7.066,11.717,11.717,0,0,1,2.974-4.365,12.429,12.429,0,0,1,4.583-2.84,22.916,22.916,0,0,1,7.387-1.315C135.047,136.641,136.3,136.605,146.929,136.605Zm21.247,6.309a4.568,4.568,0,1,0,4.778,4.563A4.676,4.676,0,0,0,168.176,142.915Zm-21.247,5.331c-11.286,0-20.43,8.744-20.43,19.521s9.144,19.509,20.43,19.509,20.442-8.731,20.442-19.509S158.215,148.246,146.929,148.246Zm0,6.856c7.326,0,13.263,5.669,13.263,12.665s-5.936,12.665-13.263,12.665-13.263-5.669-13.263-12.665S139.6,155.1,146.929,155.1Z" transform="translate(0)" fill="#0c38b1"/>
  </g>
</svg>
