<svg xmlns="http://www.w3.org/2000/svg" width="88.4" height="76" viewBox="0 0 88.4 76">
  <path id="linkedin" d="M27.627,62.789H15.541V29.242H27.627Zm1.206-44.235c0-3.359-3.17-6.085-7.075-6.085s-7.082,2.726-7.082,6.085,3.162,6.087,7.082,6.087,7.075-2.726,7.075-6.087ZM72.861,44.333c0-9.005-2.213-15.684-14.449-15.684-5.88,0-9.827,2.528-11.438,5.157h-.011V29.242H35.222V62.789H46.963V46.133c0-4.362,1.292-8.588,7.581-8.588,6.2,0,6.4,4.988,6.4,8.865V62.789H72.861ZM88.4,67.094V8.906C88.4,4,83.753,0,78.041,0H10.36C4.647,0,0,4,0,8.906V67.094C0,72,4.647,76,10.36,76H78.041C83.753,76,88.4,72,88.4,67.094ZM78.041,5.938a3.242,3.242,0,0,1,3.453,2.969V67.094a3.242,3.242,0,0,1-3.453,2.969H10.36a3.242,3.242,0,0,1-3.453-2.969V8.906A3.242,3.242,0,0,1,10.36,5.938Zm0,0" transform="translate(0)" fill="#0c38b1"/>
</svg>
